# xmcd
#
# Track frame offsets: 
#        150
#        11227
#        23634
#        36208
#        51311
#        67507
#        78521
#        91618
#        107514
#        122167
#
# Disc length: 1797 seconds
#
# Revision: 1
# Processed by: cddbd v1.5.2PL0 Copyright (c) Steve Scherf et al.
# Submitted via: ExactAudioCopy v1.0b1
#
DISCID=6f07030a
DTITLE=Janie Frickie - Pure Country
DYEAR=1900
DGENRE=Country
TTITLE0=Down To My Last Broken Heart
TTITLE1=I'll Need Someone To Hold Me (When I Cry)
TTITLE2=Do Me With Love
TTITLE3=You Don't Know About Love
TTITLE4=It Ain't Easy Bein' Easy
TTITLE5=Don't Worry "Bout Me Baby
TTITLE6=He's A Heartache (Looking For A Place To Happen)
TTITLE7=Tell Me A Lie
TTITLE8=Let's Stop Talkin' About It
TTITLE9=Your Heart's Not In It
EXTD=
EXTT0=
EXTT1=
EXTT2=
EXTT3=
EXTT4=
EXTT5=
EXTT6=
EXTT7=
EXTT8=
EXTT9=
PLAYORDER=
